<?xml version="1.0" encoding="UTF-8"?><svg id="Layer_2" xmlns="http://www.w3.org/2000/svg" width="467.82" height="329.63" viewBox="0 0 467.82 329.63"><g id="Layer_1-2"><path d="M162.66,30.18C182.46,9.68,211.36-1.02,239.66.08c16.6,1.1,33.2,5.4,47.4,14.3,5.9,3.7,11.8,7.6,16.4,12.8-4.5,5.2-9.7,9.8-14.5,14.8-5,4.9-9.8,10.1-15,14.8-8.1-7.4-18.2-13-29.2-14.5-11.4-1.3-23.5-.8-33.9,4.4-11.7,5.4-21.4,14.2-27.9,25.3-2.2,3.7-3.7,7.8-5.5,11.7-11.6-8.5-22.7-17.7-34.2-26.4,4.7-10.2,11.3-19.4,19.4-27.1h0Z" fill="#ea4335" stroke-width="0"/><path d="M143.36,57.18c11.5,8.7,22.6,17.8,34.2,26.4-1.7,8.3-4.3,16.8-2.7,25.4.5,4.7,1.9,9.3,2.7,13.9-9,7.1-18.2,14.1-27.2,21.3-2.3,1.8-4.7,3.4-7.3,4.7-6.3-12.4-9.9-26.1-10.5-40-.5-9.1.1-18.3,1.9-27.3,2.2-8.3,4.5-16.8,8.9-24.4h0Z" fill="#fbbc04" stroke-width="0"/><path d="M235.96,84.38h84.6c3.6,0,7.2-.3,10.8.3,6.2,30.7-.5,64.6-20.9,88.8-2.2,2.6-4.4,5.5-7.4,7.2-11.3-8.3-22-17.2-33.2-25.6,9.8-7.3,17.3-18.4,18.6-30.7-17.6-.3-35.2.1-52.8-.2-.5-10.4,0-20.9-.2-31.3.1-2.8-.4-5.7.5-8.5h0Z" fill="#4284f4" stroke-width="0"/><path d="M150.36,144.28c9-7.2,18.2-14.2,27.2-21.3,2.2,4.1,3.6,8.7,6.2,12.6,8.2,13.4,21.2,23.3,36.4,27.5,10.6,2.3,21.6,2.3,32.1-.2,6.2-1.6,11.9-4.6,17.5-7.7,11.2,8.4,21.9,17.4,33.2,25.6-2.7,3.5-6.4,5.9-10,8.4-16.8,11.9-37.6,16.6-57.9,17.1-20.5-.4-41-6.2-57.9-18-14.6-10-26.4-23.5-34.2-39.3,2.7-1.3,5.1-2.9,7.4-4.7h0Z" fill="#34a853" stroke-width="0"/><path d="M246.06,263.58c6.2-.2,12.4-.2,18.6,0,4.8,0,9.2,3,11.9,6.9,2.2,3.4,2.3,7.6,1.7,11.5s-3.5,7-6.6,9.2c-5.6,3.5-12.3,1.9-18.5,2.3-.6,6.5,0,13.1-.2,19.6-2.3.2-4.6.2-6.9,0-.1-16.5-.2-33,0-49.5M253.06,270.48c-.4,5.3-.5,10.7-.1,16.1,4.3,0,8.6.3,12.9-.2,5.8-2,7.3-10.4,2.6-14.3-4.5-2.9-10.3-1.2-15.4-1.6M349.46,276.98c.1-3.1-.3-6.2.4-9.2,2.2,0,4.4,0,6.7.1.2,3,0,6,.2,9,2.3,1.2,5.3.3,8,.7.1,2.1.1,4.2,0,6.4-2.7.1-5.4.2-8,.5,0,6.4-.1,12.8,0,19.3-.1,1.7.7,3.6,2.5,4,2,0,4,0,6-.2.2,2.2,0,4.4-.5,6.5-3.2.2-6.5.6-9.7-.3-2.5-1.5-5.1-3.8-5.2-6.9-.7-7.4.2-14.8-.5-22.2-2-.3-4.1-.6-6.1-.9,0-2,0-4,.1-6,2-.4,4.2-.2,6.1-.8M284.26,283.88c5.5-10.3,23-10.3,28.6,0,1.6,3.4,1.2,7.3,1.3,10.9-.1,6.1.1,12.2-.1,18.3-1.8.1-3.6.1-5.4,0-.6-.8-1.1-1.7-1.7-2.5-4.1,2.6-8.9,5.3-13.8,3.6-7.2-1.1-12.7-9.3-9.5-16.2,2-5.3,7.8-7.7,13.1-8.1,3.7-.3,7.3,1,11,1.2-.4-4.3-3.6-8.5-8.3-8.2-4.1-.7-7.5,1.8-10.2,4.6-2-.9-3.6-2.2-5-3.6M289.96,302.78c.3,3.6,4.2,5.6,7.5,5.4,5.2-.4,9.4-4.6,9.7-9.8-2.8-2.5-7-2.7-10.5-2.4s-7.1,3-6.7,6.8M377.66,280.28c3.2-1.9,6.5-4.4,10.6-4,6.9-.6,13.1,5.5,13.1,12.2.1,8.2,0,16.3,0,24.5-2.3.2-4.6.3-6.9.1-.3-8.1.4-16.2-.4-24.3-.4-5.2-6.8-6.8-11-5.2-3.7,1.6-5.7,5.6-5.8,9.5-.2,6.7.1,13.3,0,20-2.4.2-4.7.2-7.1,0-.1-11.8-.1-23.7,0-35.5,2.2-.2,4.3-.2,6.5.1.3.5.8,1.9,1,2.6M413.86,279.48c6.7-5.2,17.4-4.3,23,2.1,3.5,4.2,5,9.7,4.3,15.2-9,.3-18.1,0-27.1.1-.8,6.6,6,12,12.3,10.9,3.7-.1,5.9-3.3,8.4-5.6,2.2-.2,4,1.4,5.8,2.2-3.6,9-15.5,12.7-24,8.3-12.5-5.7-13.4-25.2-2.7-33.2M413.96,290.88c6.5.3,13.1.3,19.7,0-.6-4.9-5-8.4-9.9-8-4.9-.3-8.4,3.8-9.8,8M459.66,276.68c2.5-.8,5.2-.4,7.8,0,.2,2.4.3,4.8.2,7.2-2.6-.1-5.3-.8-7.9-.2-3.7,1.5-6.2,5.1-6.1,9.1-.2,6.7.1,13.3,0,20-2.3.3-4.7.3-7,.1-.1-11.8-.1-23.7,0-35.5,1.8-.2,3.7-.2,5.5-.2.6.9,1.2,1.8,1.9,2.7,1.9-1.1,3.8-2.2,5.6-3.2M326.86,280.98c2.6-1.4,4.9-3.7,8-3.7,1.6-.1,3.3,0,4.9.1.1,2.2.1,4.4.1,6.5-3.1.5-6.8-.3-9.3,2-1.7,1.6-3.3,3.7-3.3,6.2-.3,7.2.2,14.4-.2,21.7-2.2.2-4.5.2-6.8.1-.2-11.9-.2-23.8,0-35.6,2-.2,3.9-.1,5.9.2.1.5.5,1.8.7,2.5h0Z" fill="#fff" stroke-width="0"/><path d="M296.33,314.83c-1.11,0-2.18-.18-3.21-.54-3.71-.56-7.2-3.11-9.09-6.64-1.7-3.17-1.88-6.72-.48-9.74,1.74-4.62,6.68-7.68,13.2-8.17,2.2-.17,4.4.21,6.53.59,1.42.25,2.88.51,4.34.6-.43-4.02-3.38-7.96-7.69-7.96-.15,0-.3,0-.46.01-3.36-.57-6.57.88-10.12,4.56l-.06.06-.08-.04c-1.75-.79-3.35-1.94-5.04-3.63l-.07-.07.04-.08c2.55-4.78,8.03-7.77,14.3-7.79h.07c6.3,0,11.83,2.98,14.45,7.79,1.3,2.75,1.3,5.81,1.3,8.77,0,.72,0,1.47.02,2.19-.04,2.62-.03,5.28-.02,7.85.02,3.43.03,6.97-.08,10.46v.11s-.12,0-.12,0c-1.8.1-3.62.1-5.41,0h-.06s-.04-.05-.04-.05c-.3-.4-.58-.84-.85-1.26-.25-.38-.5-.78-.78-1.15-2.05,1.3-4.25,2.59-6.53,3.36-1.43.48-2.78.73-4.07.73ZM297.88,289.96c-.37,0-.74.01-1.12.04-9.52.72-12.35,6.32-12.99,8.02-1.37,2.95-1.2,6.42.47,9.52,1.86,3.46,5.28,5.95,8.93,6.51,2.53.88,5.87,1.39,13.71-3.58l.1-.06.07.09c.3.4.58.84.85,1.26.26.4.53.81.81,1.2,1.73.09,3.48.09,5.21,0,.11-3.45.09-6.95.08-10.33-.01-2.57-.02-5.23.02-7.85-.02-.72-.02-1.46-.02-2.19,0-2.93,0-5.96-1.27-8.66-2.57-4.72-8.01-7.65-14.22-7.65h-.07c-6.14.02-11.51,2.92-14.04,7.58,1.61,1.6,3.15,2.71,4.82,3.47,2.28-2.35,5.8-5.34,10.25-4.57.16-.01.32-.02.48-.02,4.48,0,7.54,4.15,7.93,8.33v.14s-.13,0-.13,0c-1.52-.08-3.04-.35-4.51-.61-1.75-.31-3.55-.63-5.35-.63ZM424.42,314.65c-2.8,0-5.54-.62-7.93-1.86-5.55-2.53-9.31-8.13-10.04-14.97-.8-7.4,2.01-14.47,7.32-18.44,6.77-5.25,17.59-4.26,23.17,2.12,3.46,4.15,5.04,9.73,4.33,15.3v.11s-.12,0-.12,0c-5.41.18-10.93.14-16.28.11-3.52-.02-7.15-.05-10.71,0-.3,2.8.79,5.61,3.02,7.73,2.48,2.36,5.99,3.48,9.14,2.93,2.9-.08,4.89-2.1,6.81-4.06.5-.51,1.01-1.03,1.53-1.51l.03-.03h.04c1.61-.16,3,.64,4.34,1.4.53.3,1.02.58,1.53.81l.11.05-.04.11c-1.65,4.13-5.07,7.34-9.64,9.04-2.13.79-4.39,1.19-6.61,1.19ZM424.11,276.25c-3.65,0-7.29,1.09-10.18,3.33h0c-5.24,3.92-8.01,10.9-7.22,18.22.73,6.75,4.43,12.27,9.9,14.77,4.22,2.19,9.58,2.43,14.34.66,4.46-1.66,7.81-4.78,9.45-8.78-.48-.22-.94-.49-1.44-.77-1.29-.74-2.62-1.5-4.15-1.38-.5.46-1.01.98-1.49,1.47-1.95,1.99-3.97,4.05-6.96,4.13-3.22.56-6.8-.58-9.34-2.99-2.31-2.2-3.44-5.13-3.09-8.05v-.11s.12,0,.12,0c3.6-.04,7.27-.01,10.83,0,5.31.04,10.8.07,16.16-.1.67-5.47-.89-10.93-4.29-15-3.11-3.56-7.88-5.41-12.65-5.41ZM359.7,314.47c-1.56,0-3.13-.13-4.67-.57h-.03c-2.34-1.42-5.16-3.77-5.26-7.02-.35-3.7-.3-7.46-.25-11.1.05-3.6.1-7.33-.24-10.99-.94-.14-1.89-.28-2.85-.42-1.06-.16-2.12-.31-3.15-.46l-.11-.02v-.11c0-1.97,0-4,.1-6.01v-.1s.1-.02.1-.02c.86-.17,1.77-.23,2.65-.29,1.13-.08,2.3-.16,3.35-.47.03-.94,0-1.89,0-2.81-.04-2.09-.08-4.25.41-6.32l.02-.1h.1c2.16,0,4.4,0,6.71.1h.11s0,.12,0,.12c.1,1.5.1,3.03.1,4.51s0,2.95.1,4.42c1.38.69,2.99.64,4.69.58,1.06-.04,2.16-.08,3.2.08l.1.02v.1c.1,2.11.1,4.2,0,6.41v.12s-.16,0-.16,0c-2.6.1-5.29.2-7.84.49,0,2.09-.01,4.19-.02,6.28-.02,4.21-.04,8.57.02,12.91-.09,1.6.62,3.48,2.4,3.88,1.94,0,3.97,0,5.96-.2h.13s.01.11.01.11c.19,2.13.02,4.33-.5,6.54l-.02.09h-.09c-.41.03-.83.06-1.25.09-1.26.09-2.54.18-3.82.18ZM355.11,313.66c2.76.77,5.62.57,8.39.38.39-.03.77-.05,1.16-.08.49-2.11.66-4.21.49-6.24-1.97.19-3.96.19-5.89.19-1.95-.43-2.72-2.44-2.62-4.13-.07-4.33-.04-8.69-.02-12.9.01-2.13.02-4.26.02-6.39v-.11h.11c2.57-.31,5.27-.41,7.89-.51.09-2.12.09-4.14,0-6.17-.99-.13-2.04-.1-3.06-.06-1.76.07-3.43.12-4.88-.64l-.06-.03v-.07c-.1-1.5-.1-3.03-.1-4.51s0-2.92-.09-4.38c-2.22-.09-4.39-.09-6.48-.09-.45,2.02-.42,4.12-.38,6.17.02.95.04,1.94,0,2.91v.09s-.09.03-.09.03c-1.1.35-2.32.43-3.49.51-.84.06-1.71.12-2.52.27-.09,1.93-.09,3.89-.09,5.79,1,.15,2.02.3,3.04.45.99.14,1.98.29,2.95.43h.1s0,.11,0,.11c.35,3.71.3,7.47.25,11.12-.05,3.63-.1,7.39.25,11.08.1,3.13,2.84,5.42,5.13,6.8ZM323.11,314.07c-.9,0-1.85-.02-2.86-.07h-.12s0-.12,0-.12c-.2-11.86-.2-23.84,0-35.6v-.11s.11-.01.11-.01c1.88-.19,3.76-.13,5.93.2h.09s.02.1.02.1c.07.36.31,1.18.51,1.83.05.18.1.35.15.51.68-.37,1.34-.81,1.99-1.24,1.8-1.18,3.66-2.4,5.93-2.4,1.64-.1,3.45,0,4.91.1h.11s0,.12,0,.12c.1,2.2.1,4.39.1,6.51v.11l-.1.02c-.93.15-1.92.18-2.88.22-2.28.08-4.63.16-6.36,1.75-2.19,2.06-3.26,4.06-3.26,6.11-.14,3.39-.1,6.84-.07,10.17.04,3.77.08,7.67-.13,11.54v.11s-.11,0-.11,0c-1.22.11-2.53.17-3.96.17ZM320.38,313.76c2.49.1,4.64.07,6.56-.09.21-3.83.16-7.68.12-11.41-.04-3.34-.07-6.79.07-10.18,0-2.11,1.09-4.17,3.34-6.29,1.79-1.65,4.2-1.74,6.52-1.82.92-.03,1.86-.07,2.74-.2,0-2.04,0-4.15-.09-6.27-1.43-.09-3.18-.19-4.77-.09-2.2,0-4.03,1.2-5.8,2.36-.69.46-1.41.93-2.15,1.32l-.14.07-.04-.15c-.05-.18-.12-.41-.19-.66-.19-.64-.4-1.37-.49-1.77-2.07-.31-3.88-.37-5.67-.2-.2,11.69-.2,23.58,0,35.37ZM373.71,313.35c-1.18,0-2.36-.05-3.56-.15h-.11s0-.12,0-.12c-.1-11.78-.1-23.72,0-35.5v-.11s.11,0,.11,0c2.37-.22,4.44-.18,6.53.1h.06s.03.06.03.06c.28.47.74,1.71.97,2.48.39-.23.78-.48,1.18-.72,2.84-1.75,5.77-3.57,9.36-3.21,3.19-.28,6.49.9,9.05,3.24,2.65,2.43,4.17,5.74,4.17,9.08.07,5.46.04,10.98.02,16.32-.01,2.72-.02,5.45-.02,8.18v.11h-.11c-2.79.25-4.93.28-6.92.11h-.11s0-.12,0-.12c-.12-3.24-.08-6.54-.04-9.73.06-4.78.12-9.71-.36-14.57-.14-1.85-1.07-3.36-2.69-4.39-2.25-1.42-5.52-1.71-8.14-.71-3.36,1.45-5.61,5.14-5.72,9.39-.11,3.72-.07,7.47-.02,11.1.03,2.91.07,5.92.02,8.9v.11s-.11,0-.11,0c-1.2.1-2.38.15-3.56.15ZM370.28,312.96c2.3.19,4.55.19,6.85,0,.04-2.94,0-5.91-.03-8.78-.04-3.63-.09-7.38.02-11.11.11-4.34,2.42-8.12,5.88-9.61,2.7-1.03,6.06-.73,8.37.73,1.69,1.07,2.66,2.65,2.8,4.58.48,4.86.42,9.81.36,14.59-.04,3.15-.08,6.4.04,9.6,1.92.16,3.98.13,6.65-.1,0-2.7.01-5.39.02-8.07.02-5.33.04-10.85-.02-16.31,0-3.28-1.49-6.52-4.08-8.9-2.5-2.29-5.74-3.46-8.88-3.18-3.52-.35-6.42,1.45-9.23,3.18-.44.27-.88.55-1.32.81l-.14.08-.04-.16c-.19-.68-.66-2-.96-2.52-2.01-.27-4.02-.3-6.3-.1-.1,11.7-.1,23.57,0,35.27ZM249.51,313.35c-1.16,0-2.31-.05-3.46-.15h-.11s0-.12,0-.12c-.1-16.22-.2-33,0-49.5v-.12s.12,0,.12,0c6.17-.2,12.43-.2,18.61,0,4.43,0,9.03,2.66,12,6.95,1.91,2.94,2.47,6.73,1.72,11.59-.65,4.23-3.98,7.38-6.65,9.28-4.06,2.54-8.74,2.42-13.26,2.3-1.72-.04-3.49-.09-5.2.01-.35,3.86-.28,7.82-.21,11.65.05,2.57.1,5.24.02,7.84v.11s-.11,0-.11,0c-1.15.1-2.3.15-3.46.15ZM246.18,312.96c2.21.19,4.45.19,6.65,0,.08-2.56.03-5.18-.02-7.71-.07-3.87-.14-7.87.22-11.78v-.11s.12,0,.12,0c1.75-.11,3.57-.07,5.33-.02,4.49.12,9.12.23,13.11-2.26,2.63-1.87,5.9-4.97,6.54-9.11.74-4.79.19-8.53-1.68-11.41-2.92-4.22-7.44-6.84-11.79-6.84-6.13-.2-12.35-.2-18.48,0-.2,16.42-.1,33.12,0,49.26ZM449.81,313.14c-1.03,0-2.08-.05-3.16-.14h-.11s0-.12,0-.12c-.1-11.78-.1-23.72,0-35.5v-.11s.11-.01.11-.01c1.81-.2,3.69-.2,5.51-.2h.07l.04.06c.57.85,1.16,1.74,1.83,2.61l.03-.02c1.83-1.06,3.71-2.15,5.48-3.13h.02c2.56-.83,5.37-.4,7.86-.01l.1.02v.1c.23,2.7.3,5.06.21,7.22v.12s-.13,0-.13,0c-.82-.03-1.66-.12-2.48-.21-1.78-.2-3.62-.4-5.39,0-3.68,1.49-6.1,5.1-6,8.98-.11,3.72-.07,7.48-.02,11.11.03,2.91.07,5.92.02,8.9v.11s-.11.01-.11.01c-1.23.16-2.53.24-3.87.24ZM446.78,312.76c2.39.2,4.66.17,6.75-.09.04-2.94,0-5.91-.03-8.78-.04-3.63-.09-7.39.02-11.11-.1-3.97,2.38-7.67,6.18-9.21,1.82-.42,3.69-.22,5.49-.02.77.08,1.57.17,2.34.21.08-2.09.02-4.37-.2-6.96-2.43-.37-5.17-.78-7.63,0-1.76.98-3.64,2.07-5.46,3.12l-.22.13-.07-.09c-.69-.89-1.29-1.78-1.87-2.65-1.76,0-3.57,0-5.31.19-.1,11.7-.1,23.57,0,35.27ZM296.99,308.32c-1.57,0-3.18-.47-4.48-1.31-1.59-1.03-2.54-2.53-2.68-4.22-.16-1.5.29-2.93,1.29-4.14,1.27-1.54,3.39-2.61,5.52-2.79,4.83-.41,8.3.38,10.59,2.43l.05.04v.06c-.31,5.25-4.53,9.51-9.82,9.92-.16,0-.32.01-.47.01ZM299,296c-.74,0-1.52.04-2.33.11-2.07.18-4.12,1.21-5.35,2.7-.96,1.16-1.38,2.53-1.23,3.96h0c.28,3.41,4.04,5.49,7.37,5.29,5.15-.4,9.26-4.53,9.58-9.62-1.85-1.63-4.49-2.43-8.03-2.43ZM423.77,291.23c-3.29,0-6.57-.08-9.82-.22h-.17s.05-.16.05-.16c.75-2.26,2.04-4.3,3.62-5.74,1.84-1.67,4.02-2.48,6.3-2.34,4.99-.41,9.41,3.15,10.02,8.11l.02.13h-.13c-3.29.16-6.6.23-9.89.23ZM414.13,290.76c6.38.29,12.91.29,19.39,0-.65-4.75-4.91-8.16-9.75-7.76-3.17-.21-7.56,1.73-9.64,7.76ZM259.95,286.79c-1.17,0-2.33-.02-3.48-.04-1.15-.02-2.34-.04-3.52-.04h-.12v-.12c-.38-5.02-.35-10.29.09-16.12v-.12s.13,0,.13,0c1.59.13,3.28.04,4.92-.04,3.64-.17,7.42-.36,10.54,1.66,2.23,1.85,3.25,4.91,2.69,8-.57,3.13-2.56,5.57-5.32,6.52-1.98.23-3.98.3-5.95.3ZM253.07,286.45c1.14,0,2.29.02,3.4.04,3.07.06,6.25.12,9.37-.24,2.65-.92,4.57-3.28,5.13-6.32.55-3-.45-5.98-2.59-7.76-3.05-1.96-6.78-1.78-10.38-1.61-1.6.08-3.26.16-4.82.04-.43,5.72-.46,10.9-.1,15.84Z" fill="#fff" stroke-width="0"/><path d="M11.16,267.38c7.2-5.7,17.6-6.1,26-3,3,1.4,6.4,3.1,7.9,6.4-1.4,1.6-2.9,3.1-4.6,4.4-2.4-2-4.9-4.1-7.9-5.1-7.5-2.2-16.4.1-21,6.6-3.9,4.5-4.1,10.9-3.2,16.6,1.7,8.8,10.7,15.3,19.6,14.5,8,.1,15.9-6.6,15.9-14.9-5.8-.4-11.6,0-17.4-.2-.8-1.8-.9-3.9-.4-5.8,8.1-.8,16.4-.3,24.5-.3.9,7.3-.2,15.4-5.8,20.7-9,9.6-25.3,9.7-35,1.3-11.1-9.4-12.4-26.1-2.9-37.2,1.3-1.4,2.7-2.8,4.3-4M178.66,263.88c2.3-.4,4.7-.5,7-.3.3,16.4.1,32.8.1,49.2-2.3.8-4.7.4-7.1.3-.1-16.4,0-32.8,0-49.2M69.16,276.88c5.1-1.1,10.8-.5,15.1,2.6,8.4,5.5,10.7,17.9,5.4,26.3-3.1,5.9-10,9-16.5,9-4.4-.5-8.9-2-12-5.2-5.3-5-7-13.2-4.9-20,1.5-6.3,6.9-11,12.9-12.7M70.06,283.68c-4.2,1.6-7,5.5-7.2,9.9-.4,4.3.4,9.3,4.1,12,5.7,5,15.9,1.8,17.7-5.5.9-4.6,1-10.4-2.9-13.8-2.7-3.3-7.7-3.9-11.7-2.6M109.36,276.98c4.7-1,9.9-.9,14.1,1.7,9.9,5.1,12.5,19.3,6.2,28.1-3.2,5.2-9.4,8-15.4,8.1-5.7-.4-11.6-2.9-14.8-7.8-3.2-4.2-3.7-9.7-3.2-14.8.7-7.2,6.4-13.2,13.1-15.3M110.96,283.58c-9.4,2.9-10.6,17.3-2.8,22.6,3.8,2.6,9.7,2.6,13.2-.6,5.7-4.5,6-13.8,1.3-19.1-2.9-3.3-7.7-4.1-11.7-2.9M137.26,289.48c1.9-7.5,9-13.9,17-13.1,3.9-.3,7,2.3,10.2,4.1.3-1,.6-2,.9-3,2.1-.1,4.2-.1,6.2,0,.2,11.4,0,22.9.1,34.3.1,5.6-2.2,11.7-7.1,14.8-4.3,2.8-9.7,2.8-14.6,2.3-5.5-.8-10.1-4.6-11.8-9.9,1.7-1.3,3.6-2.9,5.8-2.5,1.9,2,3.5,4.3,6,5.6,4.5,2.2,10.4.3,13.3-3.7,1.6-2.4,1.5-5.4,1.5-8.1-3.7,2.4-7.9,5-12.5,4.5-4.6-.7-9.5-2.7-12.1-6.8-3.8-5.3-4.5-12.3-2.9-18.5M150.16,283.78c-7.8,3.6-8.8,15.2-3.3,21.2,3.3,3.3,8.3,4,12.4,1.8,7.7-4.7,7.8-17.6.3-22.5-2.9-1.5-6.3-1.7-9.4-.5M196.76,281.38c3.3-3.5,7.9-5.3,12.7-5,5.9-.3,11.4,3.5,14.4,8.4,2,3.6,2.2,7.8,2.1,11.9-8.9,1.1-18,0-27,.5-.8,6.8,6.5,12.3,12.9,10.7,3.7-.4,5.7-3.6,7.9-6.1,1.9.8,3.7,1.7,5.5,2.5-1.2,5.2-6.5,8.7-11.5,9.9-5.3,1.6-11-.1-15.4-3.1-4.8-3.5-6.6-9.7-7.2-15.3.4-5.1,1.7-10.7,5.6-14.4M204.46,283.88c-3.1,1.1-4.5,4.4-5.4,7.3,6.5.1,13,.1,19.5,0-.7-2.1-1.2-4.5-3-6-3-2.5-7.5-2.6-11.1-1.3" fill="#fff" stroke-width="0"/><path d="M154.39,329.63c-1.57,0-3.09-.11-4.49-.26-5.79-.84-10.47-4.77-12.23-10.25l-.11-.33.59-.46c1.69-1.3,3.59-2.77,5.88-2.35l.16.03.11.12c.46.49.91.99,1.35,1.49,1.39,1.58,2.7,3.06,4.52,4.01,4.1,2,9.79.41,12.66-3.55,1.33-2,1.41-4.46,1.41-6.89-3.24,2.08-7.48,4.59-12.06,4.08-3.32-.5-9.33-2.08-12.47-7.03-3.6-5.02-4.72-12.09-2.96-18.89h0c1.85-7.3,8.91-14.35,17.53-13.47,3.18-.26,5.87,1.41,8.47,3.01.46.28.92.57,1.38.84l.82-2.73.35-.02c2.12-.1,4.23-.1,6.25,0l.47.02v.47c.12,6.52.11,13.18.09,19.62-.01,4.82-.02,9.81.02,14.69.09,5.06-1.79,11.72-7.33,15.23-3.17,2.06-6.92,2.63-10.43,2.63ZM138.74,319.16c1.72,4.94,6.01,8.46,11.28,9.23,4.35.45,9.93.59,14.26-2.22,5.2-3.29,6.96-9.58,6.87-14.37-.04-4.89-.03-9.88-.02-14.71.02-6.28.03-12.77-.07-19.13-1.73-.07-3.52-.07-5.33,0l-.98,3.26-.54-.31c-.65-.37-1.3-.77-1.96-1.17-2.46-1.52-5.01-3.1-7.96-2.87-8.18-.81-14.81,5.83-16.55,12.72h0c-1.68,6.52-.63,13.28,2.82,18.09,2.94,4.63,8.63,6.12,11.77,6.6,4.57.49,8.95-2.35,12.15-4.43l.77-.5v1.37c0,2.59.01,5.54-1.58,7.93-3.16,4.36-9.4,6.09-13.94,3.87-1.99-1.04-3.43-2.67-4.82-4.24-.4-.45-.8-.9-1.21-1.34-1.78-.23-3.38.99-4.93,2.19l-.03.03ZM114.27,315.38c-6.57-.46-12.24-3.46-15.23-8.03-2.79-3.66-3.9-8.76-3.28-15.12.68-6.99,6.21-13.46,13.45-15.73h.05c3.94-.85,9.66-1.23,14.47,1.75,4.54,2.34,7.93,6.84,9.25,12.32,1.41,5.82.32,11.99-2.91,16.5-3.08,5-9.14,8.2-15.8,8.31ZM109.48,277.46c-6.85,2.16-12.09,8.27-12.73,14.87-.6,6.1.44,10.96,3.1,14.45,2.83,4.34,8.22,7.17,14.44,7.6,6.28-.11,12.02-3.12,14.94-7.86,3.08-4.3,4.11-10.17,2.77-15.71-1.26-5.2-4.45-9.46-8.77-11.68-4.55-2.82-9.98-2.46-13.74-1.66ZM209.5,315.29c-3.77,0-7.76-1.3-11.43-3.8-4.13-3.01-6.62-8.28-7.42-15.66.53-6.82,2.41-11.63,5.74-14.81,3.38-3.58,8.15-5.45,13.08-5.15,5.57-.31,11.41,3.1,14.79,8.64,2.08,3.75,2.27,8.06,2.17,12.17v.43s-.44.05-.44.05c-5.19.64-10.52.54-15.67.44-3.59-.07-7.3-.14-10.93.04-.18,2.7.98,5.34,3.23,7.32,2.56,2.26,6.05,3.18,9.09,2.42,2.96-.33,4.8-2.54,6.57-4.67.36-.43.71-.86,1.07-1.27l.24-.27.33.14c1.14.48,2.26,1,3.33,1.5.73.34,1.45.68,2.18,1l.38.17-.09.4c-1.34,5.8-7.23,9.16-11.87,10.27-1.4.42-2.87.63-4.37.63ZM208.48,276.85c-4.33,0-8.41,1.75-11.36,4.87l-.02.02c-3.16,3-4.94,7.6-5.45,14.08.76,7,3.11,12.03,7,14.86,4.87,3.32,10.33,4.42,14.96,3.03,4.61-1.11,9.72-4.34,11.06-9.14-.6-.27-1.2-.55-1.81-.83-.96-.45-1.96-.91-2.97-1.35-.27.32-.54.65-.82.98-1.9,2.29-3.87,4.66-7.17,5.02-3.29.83-7.12-.18-9.93-2.65-2.61-2.3-3.9-5.43-3.52-8.6l.05-.42.42-.02c3.81-.21,7.69-.14,11.44-.06,4.97.09,10.12.2,15.1-.38.07-3.84-.16-7.82-2.05-11.21-3.19-5.21-8.65-8.39-13.94-8.14-.33-.02-.67-.03-1-.03ZM73.16,315.28c-3.71-.42-8.8-1.68-12.36-5.35-5.25-4.95-7.27-13.19-5.02-20.5,1.44-6.03,6.64-11.16,13.24-13.03h.03c5.76-1.25,11.41-.27,15.5,2.68,8.49,5.56,11.08,18.17,5.53,26.97-2.94,5.6-9.59,9.23-16.92,9.23ZM69.28,277.36c-6.25,1.78-11.17,6.62-12.53,12.33-2.15,6.98-.24,14.81,4.76,19.52,3.36,3.47,8.23,4.67,11.71,5.07,6.91,0,13.21-3.43,16-8.74,5.29-8.39,2.84-20.37-5.23-25.65-3.87-2.79-9.23-3.71-14.71-2.53ZM26.69,315.15c-6.21,0-12.47-2.05-17.26-6.2-5.45-4.61-8.77-11.09-9.34-18.24-.58-7.19,1.69-14.18,6.39-19.66,1.13-1.22,2.63-2.76,4.37-4.07,6.73-5.32,17.12-6.53,26.48-3.07,3.46,1.62,6.67,3.33,8.18,6.66l.13.29-.21.24c-1.59,1.82-3.12,3.28-4.67,4.47l-.32.24-.31-.26c-2.43-2.02-4.86-4.05-7.74-5.01-7.74-2.27-16.15.36-20.43,6.41-3.2,3.69-4.23,9.14-3.11,16.23,1.62,8.41,10.35,14.87,19.06,14.08,4.01.04,8.16-1.69,11.15-4.64,2.65-2.61,4.16-5.9,4.28-9.29-3.14-.19-6.34-.16-9.43-.13-2.45.02-4.98.05-7.48-.04h-.31s-.13-.3-.13-.3c-.81-1.83-.97-4.07-.43-6.13l.09-.34.35-.03c5.89-.58,11.94-.48,17.79-.38,2.26.04,4.52.08,6.76.08h.44l.05.44c.64,5.18.71,14.81-5.95,21.12-4.67,4.98-11.5,7.51-18.41,7.51ZM26.5,262.95c-5.65,0-11.03,1.65-15.03,4.82h-.01c-1.68,1.27-3.15,2.78-4.23,3.95-4.51,5.27-6.69,11.99-6.14,18.92.55,6.88,3.75,13.12,9,17.56,9.74,8.44,25.77,7.85,34.31-1.26,6.19-5.86,6.28-14.78,5.72-19.86-2.1,0-4.21-.04-6.33-.08-5.71-.1-11.6-.2-17.32.34-.36,1.64-.24,3.38.33,4.85,2.37.07,4.78.05,7.11.03,3.27-.03,6.65-.07,9.98.16l.47.03v.47c0,3.83-1.63,7.55-4.59,10.47-3.22,3.18-7.53,5-11.82,4.93-9.14.81-18.36-6-20.08-14.91-1.17-7.41-.06-13.14,3.31-17.02,4.49-6.35,13.36-9.15,21.52-6.75,2.98.99,5.42,2.98,7.77,4.94,1.32-1.05,2.63-2.31,4-3.84-1.43-2.84-4.37-4.4-7.52-5.87-3.42-1.26-6.98-1.88-10.45-1.88ZM182.43,313.76c-.79,0-1.58-.05-2.36-.1-.48-.03-.96-.06-1.44-.08l-.48-.02v-.48c-.07-10.94-.05-22.05-.03-32.8.01-5.47.02-10.93.02-16.4v-.42l.41-.07c2.32-.4,4.79-.51,7.13-.31l.45.04v.45c.22,11.72.18,23.64.14,35.16-.02,4.68-.03,9.37-.03,14.05v.36l-.34.12c-1.15.4-2.33.51-3.49.51ZM179.15,312.6c.33.02.66.04.98.06,1.79.12,3.48.23,5.12-.25,0-4.56.02-9.13.03-13.69.04-11.37.08-23.12-.12-34.68-1.98-.14-4.04-.05-6.01.26,0,5.33-.01,10.65-.02,15.98-.02,10.59-.04,21.54.02,32.32ZM114.48,308.58c-2.31,0-4.66-.65-6.6-1.99-3.96-2.69-5.99-7.91-5.18-13.29.76-5.05,3.79-8.86,8.12-10.2h0c4.59-1.38,9.38-.18,12.22,3.05,2.44,2.75,3.69,6.75,3.34,10.69-.33,3.76-2,7-4.7,9.13-1.89,1.73-4.51,2.61-7.19,2.61ZM111.1,284.06c-3.95,1.22-6.72,4.73-7.42,9.39-.75,5.01,1.12,9.85,4.76,12.32,3.78,2.59,9.42,2.34,12.58-.55,2.51-1.98,4.05-4.98,4.36-8.46.33-3.67-.83-7.39-3.09-9.94-2.93-3.34-7.73-3.79-11.18-2.75ZM154.23,308.55c-2.84,0-5.62-1.1-7.73-3.22-3-3.27-4.26-8.23-3.31-12.96.83-4.16,3.3-7.46,6.75-9.05h.03c3.2-1.25,6.78-1.06,9.81.51,3.74,2.44,5.9,6.85,5.82,11.84-.08,4.94-2.35,9.25-6.09,11.53-1.68.9-3.5,1.34-5.29,1.34ZM150.35,284.24c-3.16,1.46-5.41,4.5-6.18,8.33-.89,4.42.28,9.05,3.05,12.07,3.12,3.12,7.86,3.81,11.8,1.7,3.42-2.09,5.52-6.08,5.59-10.68.07-4.64-1.92-8.74-5.32-10.96-2.73-1.41-6-1.59-8.93-.46ZM73.65,308.5c-2.63,0-5.11-.88-7.02-2.55-3.22-2.34-4.78-6.88-4.27-12.42.21-4.6,3.16-8.66,7.52-10.32h.02c3.8-1.24,9.25-.91,12.24,2.75,3.21,2.79,4.27,7.73,3,14.21-.89,3.62-3.77,6.5-7.7,7.74-1.27.4-2.55.6-3.8.6ZM70.22,284.15c-3.98,1.52-6.67,5.23-6.87,9.45-.23,2.47-.31,8.51,3.9,11.57,2.58,2.27,6.27,2.92,9.89,1.78,3.6-1.13,6.22-3.75,7.03-7,.83-4.24,1.03-10.01-2.74-13.3-2.75-3.35-7.72-3.63-11.21-2.51ZM208.81,291.75c-3.26,0-6.52-.03-9.76-.08h-.67s.2-.65.2-.65c.91-2.93,2.38-6.44,5.71-7.62h0c4.21-1.52,8.75-.97,11.59,1.39,1.63,1.36,2.24,3.33,2.84,5.23.1.34.21.67.32,1l.22.65h-.68c-3.24.06-6.5.09-9.76.09ZM199.74,290.69c6.02.09,12.11.09,18.13,0-.04-.12-.08-.24-.11-.37-.55-1.76-1.12-3.59-2.52-4.76-2.57-2.14-6.73-2.62-10.61-1.21h0c-2.69.95-4.03,3.78-4.88,6.34Z" fill="#fff" stroke-width="0"/></g></svg>