<?xml version="1.0" encoding="UTF-8"?><svg id="Layer_2" xmlns="http://www.w3.org/2000/svg" width="2499.26" height="1232.43" viewBox="0 0 2499.26 1232.43"><g id="Layer_1-2"><path d="M1356.27,710.91v-197.58h59.57c15.81,0,31.36,1.07,41.89,14.48,8.44,10.79,9.72,22.17,9.72,35.58,0,17.1-3.69,33.98-23.72,41.35v.53c20.84,2.89,28.74,20.25,28.74,45.79,0,8.17-.53,16.35-2.62,24.26-7.91,25.06-22.12,35.58-48.46,35.58h-65.13ZM1401.1,681.9c7.69,0,15.55.8,22.12-2.14,10.04-4.43,11.33-17.36,11.33-27.36,0-21.37-4.22-30.29-27.14-30.29h-14.21v59.79h7.91ZM1400.03,593.16c8.98,0,20.57.53,26.34-6.84,3.42-5.02,3.95-11.86,3.95-21.32,0-14.75-3.15-22.17-20.04-22.65h-17.15v50.81h6.89M1561.27,688.79h-.53c-5.29,17.68-15.28,25.81-31.9,26.07-27.14,0-33.18-14-33.18-38.74v-113.8h34.25v101.67c0,6.57-.27,13.94,3.42,19.77,2.94,3.21,6.09,4.76,10.58,4.76,16.03,0,15.81-18.17,15.81-29.76v-96.44h34.25v148.58h-32.7v-22.12M1652.42,661.92c-2.62,27.41,7.91,26.61,15.76,26.61,9.78,0,16.67-7.11,14.27-16.62-.53-8.44-10.26-13.14-16.83-17.63l-18.7-12.93c-17.1-11.86-28.21-25.59-28.21-46.91,0-22.92,18.17-36.12,51.13-36.12s48.46,17.42,47.66,49.26h-34.25c.8-16.62-3.95-22.92-15.81-22.92-8.17,0-14.48,3.69-14.48,12.13s6.36,12.61,12.93,17.1l27.89,18.97c8.71,5.02,22.39,19.23,23.45,29.23,2.89,25.81-3.42,52.68-50.86,52.68-18.17,0-52.15-7.64-48.19-52.95h34.25M1745.92,562.33h34.25v148.58h-34.25v-148.58ZM1745.92,513.34h34.25v31.1h-34.25v-31.1ZM1846.74,577.61h.48c7.64-17.1,22.92-19.23,30.83-19.23,19.5,0,35.32,11.33,34.25,37.93v114.6h-34.25v-99.06c0-14.48-1.55-23.94-14.48-24.47s-17.42,11.59-16.83,27.41v96.12h-34.25v-148.58h34.25v15.28M1940.51,613.41c-1.55-35.05,16.35-55.08,50.06-55.08,47.71,0,52.68,24.74,52.68,65.34v20.04h-68.49v21.58c.27,19.5,7.64,23.19,17.9,23.19,12.61,0,16.35-9.19,15.81-27.89h34.25c1.28,33.18-12.4,54.28-47.44,54.28-39.48,0-55.57-18.7-54.76-62.4v-39.06h0ZM2009.06,617.36v-12.88c-.27-15.01-4.22-19.77-17.9-19.77-17.15,0-16.35,13.2-16.35,26.61v6.04h34.25M2104.16,661.92c-2.62,27.41,7.91,26.61,15.81,26.61,9.78,0,16.62-7.11,14.27-16.62-.53-8.44-10.26-13.14-16.88-17.63l-18.7-12.93c-17.1-11.86-28.16-25.59-28.16-46.91,0-22.92,18.17-36.12,51.13-36.12s48.46,17.42,47.66,49.26h-34.3c.8-16.62-3.95-22.92-15.81-22.92-8.17,0-14.48,3.69-14.48,12.13s6.36,12.61,12.93,17.1l27.94,18.97c8.71,5.02,22.39,19.23,23.4,29.23,2.94,25.81-3.42,52.68-50.81,52.68-18.22,0-52.2-7.64-48.19-52.95h34.19M2225.07,661.92c-2.62,27.41,7.91,26.61,15.81,26.61,9.78,0,16.62-7.11,14.21-16.62-.53-8.44-10.26-13.14-16.83-17.63l-18.7-12.93c-17.15-11.86-28.21-25.59-28.21-46.91,0-22.92,18.17-36.12,51.13-36.12s48.46,17.42,47.66,49.26h-34.25c.8-16.62-3.95-22.92-15.81-22.92-8.12,0-14.48,3.69-14.48,12.13s6.36,12.61,12.93,17.1l27.89,18.97c8.71,5.02,22.39,19.23,23.45,29.23,2.89,25.81-3.42,52.68-50.86,52.68-18.17,0-52.2-7.64-48.19-52.95h34.25M1357.07,988.37v-197.58h75.33c35.32,0,46.11,28.42,46.11,56.1,0,16.83-4.43,35.85-18.43,46.91-11.59,9.24-27.14,12.13-41.35,11.86h-24.74v82.76h-36.92v-.05ZM1393.99,876.65h19.77c16.08,0,26.87-6.84,26.87-30.83,0-22.65-8.92-26.07-29.76-26.07h-16.83v56.9M1563.89,988.37c-2.12-4.8-2.86-10.09-2.14-15.28h-.53c-7.91,12.34-18.43,19.23-30.03,19.23-27.68,0-39.75-13.94-39.75-44.51,0-33.98,23.99-42.15,50.86-53.21,14.48-6.04,19.71-12.61,16.83-24.74-1.6-6.63-6.89-7.64-16.08-7.64-15.55,0-18.17,8.17-17.9,21.58h-32.64c-.27-28.16,8.92-47.92,51.88-47.92,46.64,0,49.53,24.52,48.99,44.02v87.73c0,7.11,1.07,13.94,2.89,20.84h-32.38v-.11ZM1559.19,910.09c-8.44,5.77-18.7,11.59-27.73,18.97-4.97,4.22-5.77,11.59-5.77,17.9,0,11.33,3.42,19.02,16.08,19.02,20.25,0,16.62-25.59,17.42-39.8v-16.08M1654.29,866.12h.53c4.22-10.79,8.44-16.83,13.46-21.1,9.72-8.17,16.3-7.64,21.32-7.91v40.55c-18.97-1.82-33.45,2.89-33.98,24.79v85.86h-34.25v-148.58h32.91v26.39M1768.84,988.85c-20.25,2.35-48.78,4.22-48.78-23.4v-100.61h-13.94v-25.06h13.68v-40.87h34.51v40.87h14.48v25.06h-14.48v92.16c.8,6.36,10.26,5.56,14.48,5.02v26.82M1829.91,855.06h.48c7.64-17.1,22.92-19.23,30.83-19.23,19.5,0,35.32,11.33,34.25,37.93v114.66h-34.25v-99.06c0-14.48-1.55-23.99-14.48-24.47-12.93-.53-17.42,11.59-16.83,27.36v96.17h-34.25v-148.58h34.25v15.23M1923.73,890.86c-1.55-35.05,16.35-55.08,50.06-55.08,47.71,0,52.68,24.79,52.68,65.34v20.04h-68.49v21.58c.27,19.5,7.64,23.24,17.9,23.24,12.61,0,16.35-9.24,15.81-27.94h34.25c1.28,33.23-12.4,54.28-47.44,54.28-39.48,0-55.57-18.7-54.76-62.46v-39h0ZM1992.23,894.81v-12.88c-.27-15.01-4.22-19.77-17.9-19.77-17.15,0-16.35,13.2-16.35,26.61v6.04h34.25M2089.2,866.12h.53c4.22-10.79,8.44-16.83,13.41-21.1,9.78-8.17,16.35-7.64,21.32-7.91v40.55c-18.91-1.82-33.45,2.89-33.98,24.79v85.86h-34.3v-148.58h32.97v26.39" fill="#fff" stroke-width="0"/><path d="M1205.66,259.34c11.57,0,20.94-9.38,20.94-20.94,0-.04,0-.07,0-.11-.06-11.57-9.48-20.9-21.05-20.84-11.57.06-20.9,9.48-20.84,21.05.06,11.52,9.42,20.84,20.94,20.84ZM1195.03,224.45h13.52c2.35,0,5.45.05,7.53,1.39,2.51,1.6,3.31,4.33,3.31,7.21,0,5.02-2.67,7.16-7.59,7.48l6.73,11.86h0s-6.36,0-6.36,0l-6.2-11.81h-5.45v11.81h-5.5v-27.94Z" fill="#fff" stroke-width="0"/><path d="M1208.7,236.42c3.1.05,5.24-.64,5.24-4.22s-3.95-3.63-6.62-3.63h-6.79v7.8h8.17v.05Z" fill="#fff" stroke-width="0"/><path d="M1598.83,351.45V0H0v882.04h899.62v350.38h1599.64V351.45h-900.42ZM1205.66,212.54c14.25.03,25.78,11.61,25.75,25.86-.03,14.25-11.61,25.78-25.86,25.75-14.25-.03-25.78-11.61-25.75-25.86s11.61-25.78,25.86-25.75ZM978.91,212.64h150.13v23.94h-158.2l8.07-23.94ZM962.19,262.97h166.86v23.83h-174.76l7.91-23.83ZM997.61,537.86v-23.99h131.43v23.99h-131.43ZM1129.04,564.09v23.88h-131.43v-23.88h131.43ZM1076.47,463.65v24.04h-78.86v-24.04h78.86ZM997.61,437.36v-23.94h78.86v23.94h-78.86ZM945.52,313.09h130.95v23.99h-138.91l7.96-23.99ZM928.85,363.31h147.62v23.88h-78.86v-21.05l-7.27,21.05h-69.4l7.91-23.88ZM900,337.08h-139.02v-23.99h131.06l7.96,23.99ZM708.4,212.64h150.35l7.96,23.94h-158.31v-23.94ZM708.4,262.97h166.96l7.91,23.83h-174.87v-23.83ZM683.77,337.02h-80.52v-23.94h84.1c.27,5.56-2.03,18.59-3.58,23.94ZM445.54,437.36v-23.94h202.6c6.36,4.38,16.72,16.88,21.85,23.94h-224.45ZM524.34,463.65v24.04h-78.81v-24.04h78.81ZM648.14,387.25h-202.6v-23.94h226.16c-4.86,6.73-16.94,19.34-23.56,23.94ZM445.54,337.02v-23.94h78.81v23.94h-78.81ZM392.91,212.75h183.47c36.22,0,56.79,4.22,80.2,23.83h-263.67v-23.83ZM392.91,262.97h283.7c2.4,4.33,7.11,18.11,8.17,23.83h-291.88v-23.83ZM366.68,587.98h-184.06v-23.88h184.06v23.88ZM366.68,537.86h-184.06v-23.99h184.06v23.99ZM314.16,363.31v23.88h-78.97v-23.88h78.97ZM235.19,337.02v-23.94h78.97v23.94h-78.97ZM314.16,413.43v23.94h-78.97v-23.94h78.97ZM314.16,463.65v24.04h-78.97v-24.04h78.97ZM366.68,286.8h-184.06v-23.83h184.06v23.83ZM366.68,236.58h-184.06v-23.94h184.06v23.94ZM576.38,587.98h-183.47v-23.88h263.67c-23.4,19.61-43.97,23.88-80.2,23.88ZM677.15,537.81h-284.24v-23.94h291.61c-1.3,8.29-3.78,16.35-7.37,23.94ZM603.26,487.69v-24.04h80.04c1.76,3.69,4.33,18.81,4.54,24.04h-84.58ZM839.84,587.98h-131.43v-23.88h131.43v23.88ZM839.84,537.86h-131.43v-23.99h131.43v23.99ZM839.84,487.69h-78.86v-24.04h78.86v24.04ZM839.84,437.36h-78.86v-23.94h78.86v23.94ZM839.84,366.09v21.1h-78.86v-23.88h147.73l7.91,23.88h-69.51l-7.27-21.1ZM855.97,413.43h125.61l-8.12,23.99h-109.31l-8.17-23.99ZM872.96,463.65h91.58l-8.12,24.04h-75.33l-8.12-24.04ZM898.18,537.81l-8.23-23.94h57.54l-8.07,23.94h-41.25ZM922.44,587.92h-7.32l-8.07-23.83h23.56l-8.17,23.83ZM2461.16,1194.38H937.72v-312.34h330.56v-492.55h1192.89v804.89Z" fill="#fff" stroke-width="0"/></g></svg>