<?xml version="1.0" encoding="UTF-8"?><svg id="Layer_2" xmlns="http://www.w3.org/2000/svg" width="1894.01" height="450.28" xmlns:xlink="http://www.w3.org/1999/xlink" viewBox="0 0 1894.01 450.28"><defs><linearGradient id="linear-gradient" x1="987.62" y1="200.51" x2="987.62" y2="577.41" gradientUnits="userSpaceOnUse"><stop offset=".03" stop-color="#3fbcff"/><stop offset=".11" stop-color="#3db6f9"/><stop offset=".21" stop-color="#3aa5e8"/><stop offset=".34" stop-color="#358acc"/><stop offset=".47" stop-color="#2e64a5"/><stop offset=".61" stop-color="#253574"/><stop offset=".67" stop-color="#22205f"/><stop offset=".82" stop-color="#0095d2"/></linearGradient><linearGradient id="linear-gradient-2" x1="1062.33" y1="200.51" x2="1062.33" y2="577.41" xlink:href="#linear-gradient"/><linearGradient id="linear-gradient-3" x1="1165.45" y1="200.51" x2="1165.45" y2="577.41" xlink:href="#linear-gradient"/><linearGradient id="linear-gradient-4" x1="1271.76" y1="200.51" x2="1271.76" y2="577.41" xlink:href="#linear-gradient"/><linearGradient id="linear-gradient-5" x1="1369.37" y1="200.51" x2="1369.37" y2="577.41" xlink:href="#linear-gradient"/><linearGradient id="linear-gradient-6" x1="1461.04" y1="200.51" x2="1461.04" y2="577.41" xlink:href="#linear-gradient"/><linearGradient id="linear-gradient-7" x1="1543.48" y1="200.51" x2="1543.48" y2="577.41" xlink:href="#linear-gradient"/><linearGradient id="linear-gradient-8" x1="1590.5" x2="1590.5" xlink:href="#linear-gradient"/><linearGradient id="linear-gradient-9" x1="1668.39" y1="200.51" x2="1668.39" y2="577.41" xlink:href="#linear-gradient"/><linearGradient id="linear-gradient-10" x1="1775.67" y1="200.51" x2="1775.67" y2="577.41" xlink:href="#linear-gradient"/><linearGradient id="linear-gradient-11" x1="1863.42" y1="200.51" x2="1863.42" y2="577.41" xlink:href="#linear-gradient"/><linearGradient id="linear-gradient-12" x1="351.6" y1="220.51" x2="351.6" y2="506.55" gradientUnits="userSpaceOnUse"><stop offset="0" stop-color="#6eb33c"/><stop offset=".16" stop-color="#6ab03a"/><stop offset=".29" stop-color="#60a734"/><stop offset=".41" stop-color="#50992b"/><stop offset=".52" stop-color="#38851e"/><stop offset=".63" stop-color="#1a6b0e"/><stop offset=".7" stop-color="#050"/><stop offset="1" stop-color="#6eb33c"/></linearGradient><linearGradient id="linear-gradient-13" x1="426.31" y1="220.51" x2="426.31" y2="506.55" xlink:href="#linear-gradient-12"/><linearGradient id="linear-gradient-14" x1="505.03" y1="220.51" x2="505.03" y2="506.55" xlink:href="#linear-gradient-12"/><linearGradient id="linear-gradient-15" x1="580.75" y1="220.51" x2="580.75" y2="506.55" xlink:href="#linear-gradient-12"/><linearGradient id="linear-gradient-16" x1="669.57" y1="220.51" x2="669.57" y2="506.55" xlink:href="#linear-gradient-12"/><linearGradient id="linear-gradient-17" x1="757.75" y1="220.51" x2="757.75" y2="506.56" xlink:href="#linear-gradient-12"/><linearGradient id="linear-gradient-18" x1="856.82" y1="220.51" x2="856.82" y2="506.55" xlink:href="#linear-gradient-12"/><linearGradient id="linear-gradient-19" x1="140.92" y1="624.18" x2="239.94" y2="145.87" gradientUnits="userSpaceOnUse"><stop offset=".37" stop-color="#002600"/><stop offset="1" stop-color="#6eb33c"/></linearGradient><linearGradient id="linear-gradient-20" x1="367.28" y1="-7.73" x2="223.94" y2="217.86" gradientUnits="userSpaceOnUse"><stop offset=".03" stop-color="#fff"/><stop offset=".35" stop-color="#3fbcff"/><stop offset=".38" stop-color="#3eb6f9"/><stop offset=".42" stop-color="#3ca5e8"/><stop offset=".47" stop-color="#388bcc"/><stop offset=".52" stop-color="#3366a6"/><stop offset=".52" stop-color="#3361a1"/><stop offset=".68" stop-color="#3063a3"/><stop offset=".79" stop-color="#276cab"/><stop offset=".88" stop-color="#197bb9"/><stop offset=".96" stop-color="#0490cd"/><stop offset=".97" stop-color="#0095d2"/></linearGradient><linearGradient id="linear-gradient-21" x1="223.87" y1="303.04" x2="132.54" y2="443.7" gradientUnits="userSpaceOnUse"><stop offset="0" stop-color="#0095d2"/><stop offset=".15" stop-color="#0190cd"/><stop offset=".32" stop-color="#0583c0"/><stop offset=".49" stop-color="#0b6caa"/><stop offset=".66" stop-color="#144d8c"/><stop offset=".84" stop-color="#202665"/><stop offset=".87" stop-color="#22205f"/><stop offset="1" stop-color="#0095d2"/></linearGradient><linearGradient id="linear-gradient-22" x1="262.16" y1="103" x2="47.91" y2="496.27" xlink:href="#linear-gradient"/><linearGradient id="linear-gradient-23" x1="366.87" y1="-37.9" x2="192.44" y2="236.64" gradientUnits="userSpaceOnUse"><stop offset="0" stop-color="#0095d2"/><stop offset=".08" stop-color="#0a99d3"/><stop offset=".22" stop-color="#25a4d8"/><stop offset=".4" stop-color="#52b7e0"/><stop offset=".61" stop-color="#8fd0eb"/><stop offset=".84" stop-color="#ddf0f9"/><stop offset=".94" stop-color="#fff"/></linearGradient><linearGradient id="linear-gradient-24" x1="315.01" y1="94.72" x2="3.95" y2="424.93" gradientUnits="userSpaceOnUse"><stop offset=".07" stop-color="#fff"/><stop offset=".54" stop-color="#0095d2"/><stop offset=".93" stop-color="#0095d2"/><stop offset="1" stop-color="#0095d2"/></linearGradient><linearGradient id="linear-gradient-25" x1="393.52" y1="117.9" x2="98.06" y2="431.54" gradientUnits="userSpaceOnUse"><stop offset=".07" stop-color="#fff"/><stop offset=".35" stop-color="#0095d2"/><stop offset=".91" stop-color="#0095d2"/><stop offset="1" stop-color="#0095d2"/></linearGradient><linearGradient id="linear-gradient-26" x1="210.12" y1="-19.29" x2="39.22" y2="249.68" xlink:href="#linear-gradient-12"/><linearGradient id="linear-gradient-27" x1="229.91" y1="-4.3" x2="120.23" y2="168.33" gradientUnits="userSpaceOnUse"><stop offset="0" stop-color="#fff"/><stop offset=".34" stop-color="#6ee93c"/><stop offset=".4" stop-color="#64dc36"/><stop offset=".52" stop-color="#4cba29"/><stop offset=".67" stop-color="#258514"/><stop offset=".79" stop-color="#045802"/><stop offset="1" stop-color="#6eb33c"/></linearGradient><linearGradient id="linear-gradient-28" x1="195.12" y1="149.98" x2="71.64" y2="460.65" xlink:href="#linear-gradient-12"/><linearGradient id="linear-gradient-29" x1="202.36" y1="89.82" x2="104.03" y2="467.58" gradientUnits="userSpaceOnUse"><stop offset="0" stop-color="#fff"/><stop offset=".24" stop-color="#6ee93c"/><stop offset=".33" stop-color="#65dd37"/><stop offset=".49" stop-color="#4fc02b"/><stop offset=".71" stop-color="#2b8f17"/><stop offset=".94" stop-color="#050"/><stop offset="1" stop-color="#6eb33c"/></linearGradient><linearGradient id="linear-gradient-30" x1="168.85" y1="119.18" x2="114.85" y2="-79.83" gradientUnits="userSpaceOnUse"><stop offset="0" stop-color="#fff"/><stop offset=".77" stop-color="#6ee93c"/><stop offset=".84" stop-color="#6ce73b"/><stop offset=".86" stop-color="#67e038"/><stop offset=".88" stop-color="#5ed433"/><stop offset=".9" stop-color="#52c32c"/><stop offset=".91" stop-color="#41ad23"/><stop offset=".92" stop-color="#2d9218"/><stop offset=".93" stop-color="#16720c"/><stop offset=".94" stop-color="#050"/><stop offset="1" stop-color="#6eb33c"/></linearGradient><clipPath id="clippath"><path d="M212.76,0c-3.21.86-2.87,4.75-4.12,11.75-2.72,15.21-12,42.5-40.75,74.75-29.02,32.55-44.83,40.33-68,59.5,19.08-32.44,17.48-57.6,15.66-67.69,0,0-1.12-4.79,3.78-6.8C177.49,47.62,201.78,14.51,210.51,1.76c1.1-1.61,1.37-.5,2.5-.5" fill="url(#linear-gradient-30)" stroke-width="0"/></clipPath><linearGradient id="linear-gradient-31" x1="107.27" y1="135.89" x2="53.27" y2="-63.11" xlink:href="#linear-gradient-30"/><linearGradient id="linear-gradient-32" x1="87.58" y1="199.67" x2="189.21" y2="105.31" gradientUnits="userSpaceOnUse"><stop offset="0" stop-color="#fff"/><stop offset=".77" stop-color="#6ee93c"/><stop offset=".89" stop-color="#6ee73c"/><stop offset=".93" stop-color="#6ee03c"/><stop offset=".96" stop-color="#6ed43c"/><stop offset=".98" stop-color="#6ec33c"/><stop offset="1" stop-color="#6eb33c"/></linearGradient></defs><g id="Green_I_Body_and_Text"><path d="M978.39,225.32c0-2.51.9-4.65,2.71-6.43,1.8-1.77,3.96-2.66,6.48-2.66s4.69.89,6.52,2.66c1.84,1.77,2.75,3.91,2.75,6.43s-.89,4.74-2.66,6.48c-1.77,1.74-3.98,2.61-6.62,2.61s-4.75-.87-6.52-2.61c-1.77-1.74-2.66-3.9-2.66-6.48ZM981.39,344.48v-85.72h12.27v85.72h-12.27Z" fill="url(#linear-gradient)" stroke-width="0"/><path d="M1026.13,344.48v-85.72h11.31v13.24c3.48-5.48,7.75-9.58,12.8-12.32,5.06-2.74,10.87-4.11,17.45-4.11,9.73,0,17.3,2.71,22.71,8.12s8.12,12.95,8.12,22.61v58.18h-12.08v-52.87c0-8.57-1.79-14.93-5.36-19.09-3.58-4.16-9.1-6.23-16.57-6.23-9.09,0-15.77,2.69-20.05,8.07-4.29,5.38-6.43,13.84-6.43,25.37v44.75h-11.89Z" fill="url(#linear-gradient-2)" stroke-width="0"/><path d="M1129.26,344.48v-85.72h11.31v13.24c3.48-5.48,7.75-9.58,12.81-12.32,5.06-2.74,10.87-4.11,17.44-4.11,9.73,0,17.3,2.71,22.71,8.12s8.12,12.95,8.12,22.61v58.18h-12.08v-52.87c0-8.57-1.79-14.93-5.36-19.09-3.58-4.16-9.1-6.23-16.57-6.23-9.09,0-15.77,2.69-20.05,8.07-4.29,5.38-6.43,13.84-6.43,25.37v44.75h-11.89Z" fill="url(#linear-gradient-3)" stroke-width="0"/><path d="M1271.32,348.25c-6.12,0-11.98-1.21-17.59-3.62-5.61-2.42-10.7-5.88-15.27-10.39-4.32-4.25-7.6-9.15-9.86-14.69-2.26-5.54-3.38-11.47-3.38-17.78s1.16-12.18,3.48-17.78c2.32-5.61,5.64-10.57,9.95-14.88,4.38-4.38,9.38-7.73,14.98-10.05,5.61-2.32,11.5-3.48,17.69-3.48s12.32,1.16,18.03,3.48c5.7,2.32,10.78,5.67,15.22,10.05,4.45,4.38,7.84,9.37,10.2,14.98,2.35,5.61,3.53,11.5,3.53,17.69s-1.16,12.07-3.48,17.64c-2.32,5.57-5.67,10.52-10.05,14.84-4.51,4.51-9.65,7.97-15.41,10.39-5.77,2.42-11.78,3.62-18.03,3.62ZM1271.71,337.14c9.41,0,17.38-3.4,23.92-10.2,6.54-6.8,9.81-15.12,9.81-24.98s-3.25-18.36-9.76-25.13c-6.51-6.77-14.5-10.15-23.97-10.15s-17.36,3.38-23.87,10.15c-6.51,6.77-9.76,15.14-9.76,25.13s3.25,18.19,9.76,24.98c6.51,6.8,14.46,10.2,23.87,10.2Z" fill="url(#linear-gradient-4)" stroke-width="0"/><path d="M1329.99,258.76h13.05l26.29,64.95,26.19-64.95h13.24l-39.43,91.23-39.33-91.23Z" fill="url(#linear-gradient-5)" stroke-width="0"/><path d="M1490.61,344.48v-15.66c-2.84,6.31-6.81,11.13-11.94,14.45-5.12,3.32-11.16,4.98-18.12,4.98-12.31,0-22.21-4.22-29.72-12.66-7.51-8.44-11.26-19.58-11.26-33.44s3.71-24.92,11.12-33.58c7.41-8.66,16.98-13,28.7-13,7.28,0,13.58,1.59,18.89,4.78,5.31,3.19,9.42,7.88,12.32,14.06v-15.66h11.89v85.72h-11.89ZM1432.82,302.54c0,11.08,2.5,19.62,7.49,25.61,4.99,5.99,12.13,8.99,21.41,8.99s16.12-3.27,21.31-9.81c5.19-6.54,7.78-15.54,7.78-27.01,0-10.5-2.58-18.76-7.73-24.79-5.15-6.02-12.21-9.04-21.16-9.04s-16.04,3.21-21.26,9.62c-5.22,6.41-7.83,15.22-7.83,26.43Z" fill="url(#linear-gradient-6)" stroke-width="0"/><path d="M1536.91,268.91h-15.75v-10.15h15.75v-35.18h11.69v35.18h17.2v10.15h-17.2v75.58h-11.69v-75.58Z" fill="url(#linear-gradient-7)" stroke-width="0"/><path d="M1581.27,225.32c0-2.51.9-4.65,2.71-6.43,1.8-1.77,3.96-2.66,6.48-2.66s4.69.89,6.52,2.66c1.84,1.77,2.75,3.91,2.75,6.43s-.89,4.74-2.66,6.48c-1.77,1.74-3.98,2.61-6.62,2.61s-4.75-.87-6.52-2.61c-1.77-1.74-2.66-3.9-2.66-6.48ZM1584.26,344.48v-85.72h12.27v85.72h-12.27Z" fill="url(#linear-gradient-8)" stroke-width="0"/><path d="M1667.96,348.25c-6.12,0-11.98-1.21-17.59-3.62-5.61-2.42-10.7-5.88-15.27-10.39-4.32-4.25-7.6-9.15-9.86-14.69-2.26-5.54-3.38-11.47-3.38-17.78s1.16-12.18,3.48-17.78c2.32-5.61,5.64-10.57,9.95-14.88s9.38-7.73,14.98-10.05c5.61-2.32,11.5-3.48,17.69-3.48s12.32,1.16,18.02,3.48c5.7,2.32,10.78,5.67,15.22,10.05,4.45,4.38,7.84,9.37,10.2,14.98,2.35,5.61,3.53,11.5,3.53,17.69s-1.16,12.07-3.48,17.64c-2.32,5.57-5.67,10.52-10.05,14.84-4.51,4.51-9.65,7.97-15.42,10.39-5.77,2.42-11.78,3.62-18.02,3.62ZM1668.34,337.14c9.41,0,17.38-3.4,23.92-10.2,6.54-6.8,9.81-15.12,9.81-24.98s-3.25-18.36-9.76-25.13c-6.51-6.77-14.5-10.15-23.97-10.15s-17.36,3.38-23.87,10.15c-6.51,6.77-9.76,15.14-9.76,25.13s3.25,18.19,9.76,24.98c6.51,6.8,14.46,10.2,23.87,10.2Z" fill="url(#linear-gradient-9)" stroke-width="0"/><path d="M1739.47,344.48v-85.72h11.31v13.24c3.48-5.48,7.75-9.58,12.81-12.32,5.06-2.74,10.87-4.11,17.44-4.11,9.73,0,17.3,2.71,22.71,8.12s8.12,12.95,8.12,22.61v58.18h-12.08v-52.87c0-8.57-1.79-14.93-5.36-19.09-3.58-4.16-9.1-6.23-16.58-6.23-9.08,0-15.77,2.69-20.05,8.07-4.29,5.38-6.43,13.84-6.43,25.37v44.75h-11.89Z" fill="url(#linear-gradient-10)" stroke-width="0"/><path d="M1832.83,329.21l11.31-6.48c1.87,4.77,4.57,8.36,8.12,10.78,3.54,2.42,7.89,3.62,13.05,3.62s9.02-1.27,11.98-3.82c2.96-2.54,4.45-5.95,4.45-10.2,0-6.57-5.83-12.14-17.49-16.72-1.22-.45-2.19-.84-2.9-1.16-9.02-3.54-15.34-7.2-18.94-10.97-3.61-3.77-5.41-8.42-5.41-13.97,0-7.28,2.58-13.26,7.73-17.93,5.15-4.67,11.82-7.01,20.01-7.01,6.96,0,12.89,1.51,17.78,4.54,4.9,3.03,8.47,7.34,10.73,12.95l-10.92,6.09c-1.35-4.06-3.61-7.15-6.77-9.28-3.16-2.12-7.02-3.19-11.6-3.19-4.12,0-7.52,1.21-10.2,3.62-2.67,2.42-4.01,5.43-4.01,9.04s1.32,6.47,3.96,8.79c2.64,2.32,8.12,4.87,16.43,7.64,9.41,3.29,15.74,6.86,18.99,10.73,3.25,3.87,4.88,9.21,4.88,16.04,0,7.86-2.8,14.14-8.41,18.85-5.61,4.7-13.14,7.06-22.62,7.06-7.28,0-13.55-1.66-18.8-4.98-5.25-3.32-9.04-8-11.36-14.06Z" fill="url(#linear-gradient-11)" stroke-width="0"/><path d="M342.37,225.32c0-2.51.9-4.65,2.71-6.43,1.8-1.77,3.96-2.66,6.48-2.66s4.69.89,6.52,2.66c1.84,1.77,2.75,3.91,2.75,6.43s-.89,4.74-2.66,6.48c-1.77,1.74-3.98,2.61-6.62,2.61s-4.75-.87-6.52-2.61c-1.77-1.74-2.66-3.9-2.66-6.48ZM345.37,344.48v-85.72h12.27v85.72h-12.27Z" fill="url(#linear-gradient-12)" stroke-width="0"/><path d="M390.11,344.48v-85.72h11.31v13.24c3.48-5.48,7.75-9.58,12.81-12.32,5.06-2.74,10.87-4.11,17.44-4.11,9.73,0,17.3,2.71,22.71,8.12,5.41,5.41,8.12,12.95,8.12,22.61v58.18h-12.08v-52.87c0-8.57-1.79-14.93-5.36-19.09-3.58-4.16-9.1-6.23-16.57-6.23-9.08,0-15.77,2.69-20.05,8.07-4.29,5.38-6.43,13.84-6.43,25.37v44.75h-11.89Z" fill="url(#linear-gradient-13)" stroke-width="0"/><path d="M496.04,344.48v-75.58h-16.04v-10.15h16.04v-24.74c0-17.2,1.61-28.37,4.83-33.49,3.22-5.12,9.12-7.68,17.69-7.68,2.13,0,4.16.18,6.09.53,1.93.35,3.74.85,5.41,1.5l-2.22,10.44c-1.55-.77-3.04-1.35-4.49-1.74-1.45-.39-2.79-.58-4.01-.58-4.19,0-7.15,1.66-8.89,4.98-1.74,3.32-2.61,9.42-2.61,18.31v32.47h18.85v10.15h-18.85v75.58h-11.79Z" fill="url(#linear-gradient-14)" stroke-width="0"/><path d="M556.34,258.76v42.81c0,13.02,1.85,22.2,5.56,27.54,3.7,5.35,9.97,8.02,18.8,8.02s15.04-2.71,18.85-8.12c3.8-5.41,5.7-14.56,5.7-27.45v-42.81h11.79v48.9c0,13.34-3.06,23.44-9.18,30.3-6.12,6.86-15.11,10.29-26.96,10.29s-20.97-3.43-27.16-10.29c-6.19-6.86-9.28-16.96-9.28-30.3v-48.9h11.89Z" fill="url(#linear-gradient-15)" stroke-width="0"/><path d="M638.98,329.21l11.31-6.48c1.87,4.77,4.57,8.36,8.12,10.78,3.54,2.42,7.89,3.62,13.05,3.62s9.02-1.27,11.98-3.82c2.96-2.54,4.45-5.95,4.45-10.2,0-6.57-5.83-12.14-17.49-16.72-1.22-.45-2.19-.84-2.9-1.16-9.02-3.54-15.33-7.2-18.94-10.97-3.61-3.77-5.41-8.42-5.41-13.97,0-7.28,2.58-13.26,7.73-17.93,5.15-4.67,11.82-7.01,20.01-7.01,6.96,0,12.89,1.51,17.78,4.54,4.9,3.03,8.47,7.34,10.73,12.95l-10.92,6.09c-1.35-4.06-3.61-7.15-6.77-9.28-3.16-2.12-7.02-3.19-11.6-3.19-4.12,0-7.52,1.21-10.2,3.62-2.67,2.42-4.01,5.43-4.01,9.04s1.32,6.47,3.96,8.79c2.64,2.32,8.12,4.87,16.43,7.64,9.41,3.29,15.74,6.86,18.99,10.73,3.25,3.87,4.88,9.21,4.88,16.04,0,7.86-2.8,14.14-8.41,18.85-5.61,4.7-13.14,7.06-22.61,7.06-7.28,0-13.55-1.66-18.8-4.98-5.25-3.32-9.04-8-11.36-14.06Z" fill="url(#linear-gradient-16)" stroke-width="0"/><path d="M797.96,301.96h-68.14c.32,11.08,3.09,19.78,8.31,26.09,5.22,6.31,12.21,9.47,20.97,9.47,6.31,0,11.85-1.71,16.62-5.12,4.77-3.41,8.73-8.57,11.89-15.46l10.92,5.99c-4.38,8.7-9.75,15.09-16.09,19.18-6.35,4.09-14.13,6.14-23.34,6.14-12.56,0-22.73-4.2-30.49-12.61-7.76-8.41-11.65-19.44-11.65-33.1s3.85-25.38,11.55-34.02c7.7-8.63,17.77-12.95,30.2-12.95s21.36,3.98,28.51,11.94c7.15,7.96,10.73,18.57,10.73,31.84v2.61ZM783.85,291.81c-.58-7.86-3.19-13.95-7.83-18.27-4.64-4.32-10.92-6.48-18.85-6.48-7.22,0-13.26,2.26-18.12,6.77-4.87,4.51-7.68,10.5-8.46,17.98h53.25Z" fill="url(#linear-gradient-17)" stroke-width="0"/><path d="M886.2,344.48v-15.66c-2.84,6.38-6.8,11.21-11.89,14.5-5.09,3.29-11.08,4.93-17.98,4.93-12.31,0-22.21-4.22-29.72-12.66-7.51-8.44-11.26-19.58-11.26-33.44s3.7-24.92,11.11-33.58c7.41-8.66,16.98-13,28.7-13,7.28,0,13.55,1.59,18.8,4.78,5.25,3.19,9.33,7.88,12.23,14.06v-79.73h12.08v149.8h-12.08ZM828.59,302.54c0,11.08,2.5,19.62,7.49,25.61,4.99,5.99,12.13,8.99,21.41,8.99s16.01-3.27,21.17-9.81c5.15-6.54,7.73-15.54,7.73-27.01,0-10.5-2.55-18.76-7.63-24.79-5.09-6.02-12.11-9.04-21.07-9.04s-16.04,3.21-21.26,9.62c-5.22,6.41-7.83,15.22-7.83,26.43Z" fill="url(#linear-gradient-18)" stroke-width="0"/><path d="M121.8,426.01s43.5-7,56.5-61.5c0,0,51-38,74.5-107,0,0,23,100-17.12,148.32-41.59,50.1-113.88,20.18-113.88,20.18Z" fill="url(#linear-gradient-19)" stroke-width="0"/><path d="M220.35,138.62s159.14-15.94,164.61-106.78c.09-1.52-23.62-25.52-27.23-26.07-2.76-.42-4.36,4.65-5.27,10.55-4.72,30.53-17.95,49.68-38.3,68.55-24.05,22.3-62.73,39.87-93.81,53.75Z" fill="url(#linear-gradient-20)" stroke-width="0"/><path d="M123.28,374.48s35.5,34,108.5-30c0,0,6,41-28,63.5s-80.5-33.5-80.5-33.5Z" fill="url(#linear-gradient-21)" stroke-width="0"/><path d="M124.63,422.18c-26.41-12.82-63.83-65.63-63.83-116.67,0-75.33,51.16-81.57,75.5-95,29-16,58.34-33.93,72.14-48.22,4.09-4.24,5.5-6.25,6.75-7.12,2.12-1.5,5.73-2.32,8.45-2.65,57.44-7.15,91.66-27.28,104.67-36.75,2.08-1.52,4.21-3.05,5.33-2.75,1.25.33,15.04,21.49,14.42,24.25-6.29,27.66-28.94,42.83-83.75,80.58-30,20.67-62.64,32.76-93.33,60.67-73.33,66.67-27.33,148,32,130,0,0-44,30.33-78.33,13.67Z" fill="url(#linear-gradient-22)" stroke-width="0"/><path d="M270.58,73.34c22.22-11.83,63.36-26.83,84.88-66.58,2-.58.75.31,2,.31.88,0,.42-.42.32,1.11-5.47,90.84-137.99,131.01-137.99,131.01,24.98-27.94,31.5-44.17,34.5-50.67,3.37-7.29,5.18-9.26,16.28-15.17Z" fill="url(#linear-gradient-23)" stroke-width="0"/><path d="M218.51,228.98s-81.7-.31-43.83-41.27c14.28-9.1,26.5-18.02,34.06-25.85,4.09-4.24,5.5-6.25,6.75-7.12,2.12-1.5,5.73-2.32,8.45-2.65,57.44-7.15,91.66-27.28,104.67-36.75,2.08-1.52,4.21-3.05,5.33-2.75v-.04c-2.06,2.83-5.58,14.42-16.21,31.38-17.78,28.36-44.31,47.03-75.32,68.51l-23.89,16.55Z" fill="url(#linear-gradient-24)" opacity=".7" stroke-width="0"/><path d="M164.3,273.01c-24.5,23-30.73,47.36-33.5,60.58-4.33,20.67.33,47.33,14.33,62,26.35,27.61,57.33,13.67,57.33,13.67-18.88,5.73-36.41,1.4-49.18-9.32-27.35-22.96-24.55-63.38,24.18-106.18,26.97-23.68,61.81-44.88,101.17-70.58,45.42-29.67,72.3-54.25,76.92-80.67.49-2.79-21.1-30.99-22-29.75-2.06,2.83-5.58,14.42-16.21,31.38-31.47,50.21-90.37,70.04-153.04,128.87Z" fill="url(#linear-gradient-25)" stroke-width="0"/><path d="M119.3,72.01C177.47,48.11,201.19,14.51,209.92,1.76c1.1-1.61,1.38-.5,2.5-.5.79,0,1.25.88,1.17,2.25-4.93,81.82-113.29,141.84-113.29,141.84,19.08-32.44,17.83-56.91,16-67,0,0-1.9-4.32,3-6.33Z" fill="url(#linear-gradient-26)" stroke-width="0"/><path d="M99.89,146.01S228.96,106.33,233.89,24.51c.08-1.37-19.25-25-21.12-24.5-3.21.86-2.87,4.75-4.12,11.75-2.72,15.21-12,42.5-40.75,74.75-29.02,32.55-44.83,40.33-68,59.5Z" fill="url(#linear-gradient-27)" stroke-width="0"/><path d="M236.9,404.29c-11.29,14.67-28.45,24.22-53.27,24.22-103.33,0-102.33-98.5-80.67-155.33,23.6-61.9,96.16-125.81,104.67-144,1.72-3.69-17.79-23.18-19.67-21.67-41.33,33.33-63.92,43.5-110.33,65.33-3.71,1.75-7.5,4-10.46,6.33C40.93,199.01-1.04,239.51,1.63,321.18c2.05,62.63,41.33,110.33,94,124.33,35.57,9.46,105.37,9.06,141.27-41.22Z" fill="url(#linear-gradient-28)" stroke-width="0"/><path d="M178.96,428.84c-103.33,0-110.33-110.5-88.67-167.33,23.6-61.9,93.84-149.83,95.17-151.5s3.53-4.13,4.83-3.52c1.42.67,27.94,21.74,27,24.02-8,19.5-67.38,59.77-110,145-26,52-28.33,153.33,75,153.33" fill="url(#linear-gradient-29)" stroke-width="0"/><g opacity=".6"><path d="M212.76,0c-3.21.86-2.87,4.75-4.12,11.75-2.72,15.21-12,42.5-40.75,74.75-29.02,32.55-44.83,40.33-68,59.5,19.08-32.44,17.48-57.6,15.66-67.69,0,0-1.12-4.79,3.78-6.8C177.49,47.62,201.78,14.51,210.51,1.76c1.1-1.61,1.37-.5,2.5-.5" fill="url(#linear-gradient-30)"/><g clip-path="url(#clippath)"><circle cx="93.32" cy="84.51" r="150.67" fill="url(#linear-gradient-31)" stroke-width="0"/></g></g><path d="M179.95,426.92c-103.33,0-110.33-110.5-88.67-167.33,23.6-61.9,95.35-150.41,96.68-152.07-41.33,33.33-65.43,44.07-111.84,65.91-3.71,1.75-7.5,4-10.46,6.33C39.42,199.58-2.55,240.08.12,321.75c2.05,62.63,41.21,109.11,93.88,123.11,35.57,9.45,105.37,9.06,141.27-41.22-11.29,14.67-30.49,23.28-55.32,23.28Z" fill="none" stroke-width="0"/><path d="M57.39,186.35c3.41-2.82,5.64-4.61,8.28-6.6,2.96-2.33,6.75-4.59,10.46-6.33,46.42-21.83,70.51-32.57,111.84-65.91-.92,1.15-51,63.26-77.44,112.2,0,0-81.05,5.48-53.14-33.36Z" fill="url(#linear-gradient-32)" opacity=".6" stroke-width="0"/></g></svg>